<svg aria-hidden="true" style="width:0;height:0;position:absolute;overflow:hidden" xmlns="http://www.w3.org/2000/svg"><defs><symbol id="icon-burger" viewBox="0 0 46 32"><path stroke="#d41443" stroke-width="2.286" d="M0 2.286h45.714M0 16h45.714M0 29.714h45.714"/></symbol><symbol id="icon-ellipse" viewBox="0 0 32 32"><path d="M32 16c0 8.837-7.163 16-16 16S0 24.837 0 16 7.163 0 16 0s16 7.163 16 16z"/></symbol><symbol id="icon-logo" viewBox="0 0 127 32"><path fill="#d41443" style="fill:var(--color1,#d41443)" d="M12.16.576C4.8 2.816.384 8.64.384 16c0 6.016 3.072 11.264 8.128 13.888 2.624 1.344 3.008.384.576-1.472C7.36 27.008 7.04 26.368 7.04 24c0-1.664-.384-3.008-.96-3.52-1.152-.96-1.28-3.456-.128-4.352.448-.384.896-1.664.96-2.816.32-4.224 4.864-8.192 9.408-8.192s9.088 3.968 9.408 8.192c.064 1.152.512 2.432.96 2.816 1.152.896 1.024 3.392-.128 4.352-.576.512-.96 1.856-.96 3.52 0 2.368-.32 3.008-2.048 4.416-2.688 2.112-1.92 2.88 1.088 1.024C28.864 26.816 32 21.12 32 16.064 32 5.952 21.504-2.24 12.16.576z"/><path fill="#d31342" style="fill:var(--color2,#d31342)" d="M12.992 8c-1.152.512-2.112 1.152-2.112 1.536 0 .704 3.456 1.984 5.44 1.984s5.44-1.28 5.44-1.984c0-.768-3.968-2.496-5.568-2.496-.64.064-2.112.448-3.2.96zm32.96 3.328c-.96.256-1.152 1.088-1.152 5.696V22.4h4.544l-.192-5.568c-.192-5.824-.448-6.272-3.2-5.504zm7.488.32c-2.112 1.152-2.88 2.56-2.88 5.312 0 3.776 2.048 5.568 5.824 5.312 2.56-.192 2.816-.384 3.008-1.984s.064-1.728-1.92-1.6c-2.048.192-2.112.064-2.112-2.048s.128-2.24 1.984-2.048c1.536.128 2.112-.128 2.368-1.088.128-.64 0-1.536-.384-1.92-.896-.896-4.224-.896-5.888.064zm7.616.064c-.192.512-.256 3.008-.128 5.632l.192 4.736h4.16c3.84 0 4.16-.128 4.352-1.472.192-1.216-.064-1.408-2.048-1.408-1.28 0-2.304-.32-2.304-.64 0-.384.896-.64 1.92-.64 1.472 0 1.92-.256 1.92-1.28s-.448-1.28-1.92-1.28c-1.024 0-1.92-.32-1.92-.64 0-.384.832-.64 1.856-.64 1.792 0 3.008-1.408 2.24-2.624-.576-.96-7.936-.704-8.32.256zm13.184-.384c-2.368.896-3.2 2.304-3.2 5.44 0 4.224 1.536 5.76 5.632 5.504 2.752-.192 3.008-.32 3.008-1.792 0-1.408-.256-1.6-2.048-1.408-1.536.128-2.112-.064-2.432-1.088-.576-1.984.64-3.584 2.688-3.584 1.984 0 2.88-1.984 1.344-2.944-.896-.64-3.52-.64-4.992-.128zm7.551-.064c-.32.256-.512 2.88-.512 5.824v5.376l2.048-.192c1.6-.128 2.176-.576 2.496-1.792l.384-1.6.512 1.728c.384 1.472.832 1.792 2.496 1.792 2.752 0 3.072-.448 1.92-2.688-.704-1.408-.832-2.112-.32-2.624.832-.832.896-3.648.128-4.864-.64-1.024-8.32-1.856-9.152-.96zm5.248 3.456c0 .704-.256 1.28-.64 1.28-.32 0-.64-.576-.64-1.28s.32-1.28.64-1.28c.384 0 .64.576.64 1.28zm6.208-3.392c-.256.192-.448 2.816-.448 5.76V22.4h4.16c4.032 0 4.16-.064 4.16-1.6 0-1.344-.32-1.6-1.92-1.6-1.024 0-1.92-.32-1.92-.64 0-.384.704-.64 1.6-.64 1.152 0 1.6-.32 1.6-1.28s-.448-1.28-1.6-1.28c-.896 0-1.6-.32-1.6-.64 0-.384.896-.64 1.92-.64 1.6 0 1.92-.256 1.92-1.6 0-1.536-.192-1.6-3.712-1.6-2.048 0-3.968.192-4.16.448zm12.928-.064c-1.152.32-4.096 8.832-3.52 10.24.512 1.28 3.392 1.152 4.16-.192.576-1.088.64-1.088 1.792 0 1.472 1.28 4.672 1.472 4.672.256 0-.384-.64-2.944-1.472-5.568-1.28-4.224-1.664-4.8-3.008-4.928-.896 0-2.048.064-2.624.192zm1.792 5.824c-.192.64-.32.256-.32-.768 0-1.088.128-1.536.32-1.152.128.448.128 1.344 0 1.92zm7.424-5.76c-.576.192-.832 1.984-.832 5.696V22.4h1.92c1.728 0 1.92-.192 1.984-2.112l.064-2.048.704 1.728c.832 2.176 2.176 2.304 3.008.32.512-1.344.576-1.344.576.384.064 1.6.256 1.792 2.048 1.6l1.984-.192.064-5.312c.128-4.928.064-5.312-1.28-5.632-2.048-.512-3.776.704-4.352 3.072l-.448 2.112-.704-2.24c-.896-3.008-2.24-3.776-4.736-2.752zm-106.047.64c-.192.256-.384 1.088-.384 1.92 0 1.472.064 1.472 7.36 1.472s7.36 0 7.36-1.472c0-2.176-.576-2.432-2.624-1.408-2.304 1.216-7.168 1.216-9.472 0-1.024-.512-1.984-.704-2.24-.512zm-1.856 5.696c-1.024 1.088.704 1.536 5.696 1.536h5.376v2.24c0 1.216.32 2.24.64 2.24.384 0 .64-.96.64-2.176 0-2.112.128-2.24 2.56-2.432 1.408-.128 2.56-.512 2.56-.832 0-.704-16.768-1.28-17.472-.576z"/><path fill="#d41443" style="fill:var(--color1,#d41443)" d="M8.96 23.296c0 3.52 1.216 4.224 7.36 4.224s7.36-.704 7.36-4.224c0-1.536-.32-2.176-.96-2.176-.576 0-.96.576-.96 1.536 0 3.584-4.864 3.904-5.568.384-.32-1.856-.512-1.92-3.776-1.92H8.96v2.176zm3.968 7.232c.384 2.048 6.912 1.856 6.912-.128 0-.704-.832-.96-3.584-.96-3.008 0-3.52.192-3.328 1.088z"/></symbol><symbol id="icon-arrow" viewBox="0 0 26 32"><path fill="none" stroke-linejoin="round" stroke-linecap="round" stroke-width="6.4" d="M5.171 3.2 19.341 16 5.171 28.8"/></symbol><symbol id="icon-arrow-right" viewBox="0 0 32 32"><path d="M16.8 14c.88 1.04.56 1.2-1.92 1.2-1.6 0-2.88.32-2.88.8 0 .4 1.28.8 2.88.8 2.48 0 2.8.16 1.92 1.2-1.52 1.84.32 1.44 2-.4 1.36-1.52 1.36-1.68 0-3.2-1.68-1.84-3.52-2.24-2-.4z"/></symbol><symbol id="icon-ellipse-1" viewBox="0 0 32 32"><path fill="#fff" style="fill:var(--color1,#fff)" d="M0 16c0 8.837 7.163 16 16 16s16-7.163 16-16S24.837 0 16 0 0 7.163 0 16z"/></symbol><symbol id="icon-close" viewBox="0 0 32 32"><path stroke-width="2" d="m2.519 2 26.963 28M2 29.481 30 2.518"/></symbol></defs></svg>